<?xml version="1.0" standalone="no"?>
<!DOCTYPE svg PUBLIC "-//W3C//DTD SVG 20010904//EN"
 "http://www.w3.org/TR/2001/REC-SVG-20010904/DTD/svg10.dtd">
<svg version="1.0" xmlns="http://www.w3.org/2000/svg"
 width="500.000000pt" height="500.000000pt" viewBox="0 0 500.000000 500.000000"
 preserveAspectRatio="xMidYMid meet">

<g transform="translate(0.000000,500.000000) scale(0.100000,-0.100000)"
fill="#000000" stroke="none">
<path d="M761 2188 c-134 -194 -246 -359 -248 -365 -4 -10 51 -13 255 -13
l260 0 34 48 c19 26 54 75 78 110 l43 63 -21 37 c-11 20 -25 37 -31 37 -5 0
-42 -46 -81 -102 l-71 -103 -150 0 -151 0 17 28 c13 19 281 409 310 450 1 1
84 -126 184 -283 l183 -285 54 0 55 0 -23 38 c-63 104 -444 692 -448 692 -3 0
-115 -159 -249 -352z"/>
<path d="M1338 2418 c-47 -68 -88 -129 -92 -136 -7 -11 31 -92 43 -92 3 0 35
43 70 95 l65 95 62 -97 c35 -54 116 -181 181 -283 l119 -185 53 -3 c45 -3 53
-1 48 12 -9 23 -448 705 -457 711 -5 3 -46 -50 -92 -117z"/>
<path d="M2051 2057 c-41 -116 -76 -218 -79 -224 -3 -10 11 -13 50 -13 l54 0
13 50 13 50 83 0 83 0 12 -50 12 -50 55 0 c40 0 54 3 51 13 -3 6 -38 108 -79
224 l-74 213 -60 0 -60 0 -74 -213z m163 -45 c-13 -2 -36 -2 -52 0 l-28 3 25
85 25 84 27 -84 27 -85 -24 -3z"/>
<path d="M2627 2263 c-4 -3 -7 -105 -7 -225 l0 -218 45 0 45 0 2 159 3 160 90
-157 90 -157 63 -3 62 -3 0 226 0 226 -42 -3 -43 -3 0 -161 0 -162 -50 87
c-28 47 -71 121 -95 163 l-45 78 -56 0 c-31 0 -59 -3 -62 -7z"/>
<path d="M3317 2263 c-4 -3 -7 -105 -7 -225 l0 -218 130 0 130 0 0 40 0 40
-80 0 -80 0 0 55 0 55 75 0 75 0 0 40 0 40 -75 0 -75 0 0 45 0 45 80 0 80 0 0
45 0 45 -123 0 c-68 0 -127 -3 -130 -7z"/>
<path d="M2450 1900 c-24 -24 -25 -38 -4 -68 17 -24 62 -30 82 -10 20 20 15
76 -7 88 -29 15 -49 12 -71 -10z"/>
<path d="M3130 1900 c-24 -24 -25 -38 -4 -68 17 -24 62 -30 82 -10 20 20 15
76 -7 88 -29 15 -49 12 -71 -10z"/>
</g>
</svg>
